HIERARCHY
ROOT Hips
{
    OFFSET 0.000000 0.000000 0.000000
    CHANNELS 6 Xposition Yposition Zposition Zrotation Xrotation Yrotation
    JOINT Spine
    {
        OFFSET -0.000000 14.517291 0.000000
        CHANNELS 3 Zrotation Xrotation Yrotation
        JOINT Spine1
        {
            OFFSET -0.000000 37.558300 0.000000
            CHANNELS 3 Zrotation Xrotation Yrotation
            JOINT Neck
            {
                OFFSET -0.000000 37.404057 3.400369
                CHANNELS 3 Zrotation Xrotation Yrotation
                JOINT Head
                {
                    OFFSET -0.000000 24.785618 -3.540803
                    CHANNELS 3 Zrotation Xrotation Yrotation
                    End Site
                    {
                        OFFSET -0.000000 35.408028 0.000000
                    }
                }
            }
            JOINT LeftShoulder
            {
                OFFSET 6.992933 33.973492 -0.192664
                CHANNELS 3 Zrotation Xrotation Yrotation
                JOINT LeftArm
                {
                    OFFSET 21.527611 0.000000 0.000000
                    CHANNELS 3 Zrotation Xrotation Yrotation
                    JOINT LeftForeArm
                    {
                        OFFSET 56.353916 0.000000 0.000000
                        CHANNELS 3 Zrotation Xrotation Yrotation
                        JOINT LeftHand
                        {
                            OFFSET 47.774071 0.000000 0.000000
                            CHANNELS 3 Zrotation Xrotation Yrotation
                            End Site
                            {
                                OFFSET 26.556021 0.000000 0.000000
                            }
                        }
                    }
                }
            }
            JOINT RightShoulder
            {
                OFFSET -7.065357 33.973492 -0.192664
                CHANNELS 3 Zrotation Xrotation Yrotation
                JOINT RightArm
                {
                    OFFSET -21.527611 0.000000 0.000000
                    CHANNELS 3 Zrotation Xrotation Yrotation
                    JOINT RightForeArm
                    {
                        OFFSET -56.353916 0.000000 0.000000
                        CHANNELS 3 Zrotation Xrotation Yrotation
                        JOINT RightHand
                        {
                            OFFSET -47.774071 0.000000 0.000000
                            CHANNELS 3 Zrotation Xrotation Yrotation
                            End Site
                            {
                                OFFSET -26.556021 0.000000 0.000000
                            }
                        }
                    }
                }
            }
        }
    }
    JOINT LeftUpLeg
    {
        OFFSET 17.704014 0.000000 0.000000
        CHANNELS 3 Zrotation Xrotation Yrotation
        JOINT LeftLeg
        {
            OFFSET -0.000000 -81.181816 0.000000
            CHANNELS 3 Zrotation Xrotation Yrotation
            JOINT LeftFoot
            {
                OFFSET -0.000000 -62.821102 0.000000
                CHANNELS 3 Zrotation Xrotation Yrotation
                JOINT LeftToeBase
                {
                    OFFSET -0.000000 -11.507608 26.556021
                    CHANNELS 3 Zrotation Xrotation Yrotation
                    End Site
                    {
                        OFFSET -0.000000 0.000000 7.081605
                    }
                }
            }
        }
    }
    JOINT RightUpLeg
    {
        OFFSET -17.704014 0.000000 0.000000
        CHANNELS 3 Zrotation Xrotation Yrotation
        JOINT RightLeg
        {
            OFFSET -0.000000 -81.181816 0.000000
            CHANNELS 3 Zrotation Xrotation Yrotation
            JOINT RightFoot
            {
                OFFSET -0.000000 -62.821102 0.000000
                CHANNELS 3 Zrotation Xrotation Yrotation
                JOINT RightToeBase
                {
                    OFFSET -0.000000 -11.507608 26.556021
                    CHANNELS 3 Zrotation Xrotation Yrotation
                    End Site
                    {
                        OFFSET -0.000000 0.000000 7.081605
                    }
                }
            }
        }
    }
}
MOTION
Frames:    12
Frame Time:    0.008333
-10.903993    151.141022    -6.932508    0.450221    0.502913    23.783115    -3.483973    2.403012    7.757492    -1.421802    -1.166354    2.547159    -1.421740    4.816446    -16.389654    13.045789    -7.101297    -14.309392    2.993572    3.277625    -10.347519    -31.369743    13.618834    -65.745506    5.212970    -34.279339    -92.137413    -12.626691    -28.125002    -15.993021    -0.289393    11.382823    0.819179    37.846485    13.913970    47.464859    -39.615501    -33.070137    43.731457    11.827497    -14.724215    32.906563    -1.776342    -33.962173    -27.586563    -14.701594    30.182756    -20.017603    -4.090244    -2.541437    30.084686    0.000000    0.000000    0.000000    2.124981    6.886942    -19.894787    3.774236    31.763813    -4.688258    1.853953    -34.687157    -8.070211    0.000000    0.000000    0.000000    
-10.895160    151.144913    -6.935023    0.461633    0.508232    23.800129    -3.497766    2.409765    7.760301    -1.414420    -1.172709    2.547944    -1.433358    4.807609    -16.393593    13.047297    -7.082679    -14.313955    2.978142    3.291277    -10.343690    -31.393011    13.717137    -65.710213    5.114912    -34.068291    -92.003693    -12.672382    -27.998037    -15.966413    -0.294579    11.394777    0.812736    37.829781    13.920352    47.465321    -39.617516    -33.070793    43.695927    11.817902    -14.743082    32.891850    -1.796112    -33.954418    -27.599958    -14.701468    30.162695    -20.011440    -4.092250    -2.529550    30.074650    0.000000    0.000000    0.000000    2.120446    6.897434    -19.909082    3.770890    31.734562    -4.712580    1.849641    -34.682007    -8.073128    0.000000    0.000000    0.000000    
-10.885731    151.150223    -6.940298    0.466327    0.511405    23.816135    -3.493423    2.421695    7.764454    -1.424324    -1.187669    2.548948    -1.416228    4.829393    -16.398689    13.022825    -7.104662    -14.323833    2.973238    3.299792    -10.351311    -31.437641    13.812458    -65.657471    4.926918    -33.827469    -91.943604    -12.556921    -27.940742    -15.893367    -0.296972    11.407692    0.814401    37.820854    13.929899    47.456245    -39.628315    -33.070335    43.657467    11.800095    -14.759012    32.889839    -1.809129    -33.948566    -27.620918    -14.698000    30.141134    -20.026926    -4.099522    -2.507927    30.075108    0.000000    0.000000    0.000000    2.120257    6.900657    -19.918215    3.754123    31.723780    -4.707912    1.869366    -34.684471    -8.059701    0.000000    0.000000    0.000000    
-10.877968    151.157593    -6.944703    0.469211    0.516533    23.834087    -3.488974    2.423625    7.770236    -1.429138    -1.186453    2.550849    -1.411039    4.795118    -16.403927    12.990568    -7.055027    -14.341381    2.963701    3.303751    -10.358288    -31.470745    13.918789    -65.603188    4.781320    -33.641876    -91.858864    -12.555470    -27.891493    -15.816643    -0.300237    11.407596    0.806876    37.799816    13.963656    47.447433    -39.652401    -33.080017    43.613499    11.816563    -14.773798    32.880859    -1.818231    -33.943493    -27.629421    -14.698278    30.118525    -20.028885    -4.114411    -2.500818    30.073544    0.000000    0.000000    0.000000    2.119762    6.903951    -19.928568    3.751534    31.705889    -4.711803    1.867753    -34.669567    -8.069171    0.000000    0.000000    0.000000    
-10.867764    151.166489    -6.943333    0.475709    0.512873    23.849680    -3.483411    2.429344    7.773060    -1.434592    -1.185241    2.551747    -1.422218    4.804789    -16.411367    13.002920    -7.045211    -14.346752    2.951120    3.314601    -10.350232    -31.484781    14.031460    -65.553360    4.629345    -33.440239    -91.777748    -12.481668    -27.843090    -15.705833    -0.307010    11.407205    0.810509    37.798927    13.976625    47.433098    -39.656609    -33.077065    43.579254    11.851110    -14.771148    32.895161    -1.826582    -33.926617    -27.642946    -14.701616    30.093369    -20.008471    -4.125257    -2.489896    30.054152    0.000000    0.000000    0.000000    2.122663    6.920162    -19.941742    3.742783    31.679581    -4.732726    1.872000    -34.657497    -8.057504    0.000000    0.000000    0.000000    
-10.859091    151.179062    -6.946657    0.478328    0.515569    23.866821    -3.472921    2.434415    7.777102    -1.451776    -1.189350    2.552896    -1.415390    4.789400    -16.411280    12.990485    -7.009768    -14.353604    2.951708    3.327316    -10.347415    -31.483408    14.168218    -65.515938    4.577940    -33.282562    -91.596222    -12.555199    -27.721842    -15.761251    -0.299234    11.405016    0.818762    37.794617    13.976049    47.403137    -39.627201    -33.063477    43.584824    11.808893    -14.781982    32.862556    -1.833526    -33.916737    -27.646513    -14.694221    30.067921    -20.021397    -4.137658    -2.470128    30.046665    0.000000    0.000000    0.000000    2.121546    6.926139    -19.929232    3.752086    31.660194    -4.727169    1.860963    -34.636673    -8.096272    0.000000    0.000000    0.000000    
-10.851508    151.191635    -6.950886    0.475440    0.519331    23.885553    -3.459003    2.434852    7.784132    -1.461506    -1.193814    2.555168    -1.411498    4.793166    -16.415968    12.982291    -6.995743    -14.362164    2.946978    3.338080    -10.350885    -31.489193    14.301987    -65.460327    4.449481    -33.112293    -91.496880    -12.409258    -27.694996    -15.648921    -0.300214    11.410348    0.820334    37.786449    13.989438    47.377281    -39.626812    -33.060291    43.569466    11.822236    -14.780382    32.867466    -1.831546    -33.909309    -27.650105    -14.695416    30.031984    -20.014706    -4.156102    -2.448582    30.025911    0.000000    0.000000    0.000000    2.129144    6.925252    -19.943432    3.741147    31.641861    -4.731441    1.883599    -34.617641    -8.085462    0.000000    0.000000    0.000000    
-10.843417    151.205460    -6.951290    0.473756    0.518526    23.900135    -3.446656    2.437800    7.790883    -1.462475    -1.199291    2.557406    -1.422083    4.791637    -16.420107    12.973872    -6.960624    -14.370915    2.934540    3.349481    -10.350112    -31.479622    14.446378    -65.395386    4.444243    -32.985893    -91.347198    -12.400875    -27.582769    -15.599813    -0.311147    11.423638    0.810248    37.771847    14.010139    47.379665    -39.627529    -33.058960    43.545582    11.819718    -14.788782    32.870159    -1.825600    -33.894432    -27.643957    -14.691886    29.996567    -20.001606    -4.163561    -2.422853    29.983253    0.000000    0.000000    0.000000    2.132943    6.931688    -19.932949    3.755774    31.623375    -4.742571    1.891934    -34.591904    -8.110992    0.000000    0.000000    0.000000    
-10.835894    151.216644    -6.958253    0.476121    0.525710    23.914318    -3.436192    2.444224    7.795628    -1.478033    -1.213226    2.558659    -1.414119    4.784856    -16.417557    12.958189    -6.930663    -14.375448    2.938614    3.365501    -10.335539    -31.475994    14.583823    -65.344353    4.393171    -32.813354    -91.196373    -12.296185    -27.480644    -15.494515    -0.310667    11.425504    0.817082    37.760349    14.034188    47.357475    -39.641514    -33.060410    43.516861    11.844609    -14.787666    32.881451    -1.830709    -33.887329    -27.620916    -14.667913    29.972168    -20.039995    -4.191827    -2.413320    29.976627    0.000000    0.000000    0.000000    2.130109    6.933208    -19.940956    3.751635    31.605089    -4.740753    1.895153    -34.576618    -8.108747    0.000000    0.000000    0.000000    
-10.825787    151.229401    -6.962670    0.476908    0.528878    23.927322    -3.429594    2.444731    7.799903    -1.466480    -1.217986    2.560168    -1.435009    4.790774    -16.415375    12.958566    -6.913352    -14.372850    2.918424    3.370436    -10.332223    -31.472729    14.718147    -65.259949    4.357073    -32.636906    -91.041306    -12.301935    -27.339853    -15.467877    -0.336974    11.440864    0.814093    37.751900    14.058143    47.363842    -39.666187    -33.058758    43.484451    11.837488    -14.788858    32.894093    -1.829952    -33.875824    -27.608101    -14.666577    29.937614    -20.036312    -4.200774    -2.387958    29.954086    0.000000    0.000000    0.000000    2.128634    6.938716    -19.953436    3.748527    31.580708    -4.776406    1.922363    -34.555618    -8.059539    0.000000    0.000000    0.000000    
-10.817498    151.241058    -6.970378    0.479456    0.535936    23.945902    -3.420660    2.446671    7.801430    -1.475762    -1.225753    2.560521    -1.421805    4.789823    -16.412506    12.928852    -6.891976    -14.379476    2.915667    3.375252    -10.319099    -31.465954    14.865430    -65.196022    4.321043    -32.484665    -90.882309    -12.276310    -27.226479    -15.462283    -0.339887    11.451864    0.820473    37.744049    14.056175    47.344593    -39.661129    -33.045212    43.486889    11.834526    -14.775766    32.889954    -1.837299    -33.867027    -27.588619    -14.652963    29.902466    -20.045696    -4.219841    -2.364393    29.936251    0.000000    0.000000    0.000000    2.125953    6.940536    -19.967995    3.751210    31.558573    -4.764081    1.904396    -34.534889    -8.097468    0.000000    0.000000    0.000000    
-10.807989    151.252457    -6.977536    0.484558    0.536905    23.957298    -3.415272    2.460715    7.807597    -1.468117    -1.241612    2.562363    -1.440173    4.785157    -16.413244    12.924620    -6.853468    -14.383336    2.897034    3.392230    -10.303385    -31.456650    14.991601    -65.121361    4.286704    -32.323868    -90.757996    -12.218006    -27.115019    -15.346260    -0.363857    11.455214    0.816583    37.744122    14.073338    47.337540    -39.665539    -33.033997    43.480953    11.827210    -14.766317    32.882065    -1.840019    -33.853138    -27.572336    -14.641998    29.873304    -20.043907    -4.242302    -2.348595    29.906252    0.000000    0.000000    0.000000    2.121486    6.947232    -19.983932    3.742789    31.540611    -4.787740    1.930810    -34.520630    -8.049167    0.000000    0.000000    0.000000    
